<?xml version="1.0" standalone="no"?>
<!DOCTYPE svg PUBLIC "-//W3C//DTD SVG 20010904//EN"
 "http://www.w3.org/TR/2001/REC-SVG-20010904/DTD/svg10.dtd">
<svg version="1.0" xmlns="http://www.w3.org/2000/svg"
 width="1024.000000pt" height="1024.000000pt" viewBox="0 0 1024.000000 1024.000000"
 preserveAspectRatio="xMidYMid meet">

<g transform="translate(0.000000,1024.000000) scale(0.100000,-0.100000)"
fill="#000000" stroke="none">
<path d="M5785 8773 c-22 -20 -74 -69 -115 -107 -141 -133 -246 -231 -453
-425 -114 -107 -204 -198 -200 -202 4 -4 87 -35 183 -69 242 -86 276 -98 521
-188 l216 -79 67 54 c54 44 65 58 61 76 -23 94 -74 306 -145 614 -47 200 -87
363 -90 363 -3 0 -23 -17 -45 -37z"/>
<path d="M4238 7328 c-142 -133 -256 -243 -254 -245 8 -9 904 -213 923 -211
28 4 628 497 611 502 -26 9 -994 196 -1008 195 -8 0 -131 -109 -272 -241z"/>
<path d="M6390 6579 c-107 -38 -207 -71 -222 -75 -24 -6 -32 -25 -124 -293
-53 -157 -98 -288 -100 -290 -4 -4 -422 -101 -439 -101 -8 0 11 74 60 225 95
293 92 279 63 272 -41 -9 -593 -199 -604 -209 -7 -5 -42 -102 -79 -216 -37
-114 -71 -210 -74 -215 -11 -11 -596 -144 -599 -136 -3 7 59 190 99 292 11 26
19 51 19 56 0 7 -122 -33 -523 -171 l-97 -33 -50 -144 c-27 -79 -51 -145 -52
-146 -2 -1 -68 -17 -148 -35 -187 -42 -251 -57 -257 -64 -3 -2 52 -265 122
-583 153 -696 195 -888 240 -1098 19 -88 39 -173 43 -190 l9 -30 259 2 c142 2
365 5 494 8 129 3 510 10 845 16 336 6 743 14 905 17 l295 7 17 460 c22 605
55 1506 73 1980 24 633 28 765 24 764 -2 -1 -92 -32 -199 -70z m-498 -1373
c374 -72 606 -356 519 -635 -75 -241 -359 -412 -685 -412 -133 0 -208 12 -316
50 -272 96 -431 312 -399 540 24 170 175 335 379 416 130 51 354 69 502 41z
m-1467 -96 c472 -121 639 -559 322 -845 -73 -67 -207 -136 -322 -167 -96 -25
-324 -31 -418 -10 -157 36 -303 116 -397 219 -144 157 -161 374 -42 544 97
139 288 246 497 279 90 14 268 4 360 -20z"/>
<path d="M5174 4720 c-11 -4 -33 -22 -47 -40 -49 -58 -29 -153 39 -185 18 -8
41 -15 52 -15 27 0 84 41 99 70 30 59 0 140 -62 166 -39 16 -51 16 -81 4z"/>
<path d="M4624 4606 c-30 -30 -34 -40 -34 -86 0 -46 4 -56 34 -86 38 -38 86
-45 135 -19 30 15 61 69 61 105 0 36 -31 90 -61 105 -49 26 -97 19 -135 -19z"/>
<path d="M3271 6423 c-111 -103 -201 -190 -201 -193 0 -3 121 -38 268 -79 147
-41 319 -89 382 -107 63 -17 123 -34 132 -36 11 -2 111 74 262 197 135 109
244 201 242 202 -4 4 -406 96 -672 153 -99 22 -188 42 -196 45 -11 5 -77 -51
-217 -182z"/>
<path d="M3815 2960 c-22 -11 -51 -36 -65 -57 l-25 -36 -3 -306 c-3 -339 1
-366 59 -415 60 -51 168 -59 245 -19 63 32 88 88 92 206 l4 97 -66 0 -66 0 0
-78 c0 -101 -14 -124 -73 -120 -65 5 -67 13 -67 311 0 157 4 266 10 277 25 47
98 50 119 4 6 -14 11 -52 11 -84 l0 -60 65 0 65 0 0 69 c0 72 -19 142 -48 174
-49 56 -181 75 -257 37z"/>
<path d="M4200 2540 l0 -430 70 0 70 0 0 430 0 430 -70 0 -70 0 0 -430z"/>
<path d="M4430 2540 l0 -430 66 0 65 0 -3 295 c-2 161 0 291 3 287 6 -6 159
-564 159 -578 0 -2 32 -4 70 -4 l70 0 0 430 0 430 -60 0 -60 0 -2 -242 -3
-243 -65 240 -65 240 -88 3 -87 3 0 -431z"/>
<path d="M4960 2540 l0 -430 185 0 185 0 0 60 c0 50 -3 60 -17 61 -10 0 -58 0
-108 0 -49 -1 -96 2 -103 7 -9 6 -12 39 -10 128 l3 119 93 3 92 3 0 59 0 60
-95 0 -96 0 3 118 3 117 118 3 117 3 0 59 0 60 -185 0 -185 0 0 -430z"/>
<path d="M5410 2540 l0 -430 60 0 60 0 2 283 3 282 43 -265 c24 -146 45 -273
48 -282 4 -15 17 -18 70 -18 35 0 64 4 64 9 0 17 80 546 84 556 3 6 5 -119 5
-277 l1 -288 65 0 65 0 0 430 0 430 -94 0 c-89 0 -94 -1 -99 -22 -3 -13 -22
-135 -42 -273 -20 -137 -39 -258 -43 -268 -4 -11 -25 92 -51 250 -24 147 -46
278 -48 291 -5 21 -10 22 -99 22 l-94 0 0 -430z"/>
<path d="M6175 2958 c-2 -7 -31 -186 -65 -398 -33 -212 -63 -400 -66 -418 l-6
-33 63 3 64 3 7 45 c4 25 10 60 13 78 l6 32 79 0 c90 0 83 7 98 -100 l7 -55
68 -3 c48 -2 67 1 67 9 0 7 -29 196 -65 420 -36 224 -65 412 -65 418 0 16
-199 15 -205 -1z m128 -370 c15 -106 28 -196 27 -200 0 -5 -27 -8 -60 -8 -50
0 -60 3 -60 18 0 35 54 382 60 382 3 0 18 -87 33 -192z"/>
<path d="M4354 1881 c-48 -21 -54 -44 -54 -217 0 -140 2 -165 18 -184 37 -46
145 -41 171 9 7 12 11 84 11 180 0 151 -1 161 -23 186 -24 29 -86 42 -123 26z
m66 -61 c12 -7 16 -36 18 -132 4 -140 -6 -181 -41 -176 -22 3 -22 6 -25 152
-2 113 1 151 10 158 16 10 20 10 38 -2z"/>
<path d="M5274 1878 c-42 -20 -49 -52 -49 -214 0 -139 2 -155 21 -181 18 -23
29 -28 72 -31 44 -3 56 1 77 22 21 21 25 35 25 81 0 54 0 55 -29 55 -28 0 -30
-2 -33 -47 -3 -42 -6 -48 -27 -51 -13 -2 -28 2 -32 10 -5 7 -9 72 -9 145 0
106 3 135 16 147 25 25 54 4 54 -39 0 -32 2 -35 30 -35 31 0 35 9 31 65 -6 69
-80 106 -147 73z"/>
<path d="M6050 1883 c-8 -3 -25 -15 -37 -26 -22 -20 -23 -27 -23 -189 0 -166
0 -169 25 -193 18 -19 35 -25 69 -25 96 0 106 20 106 214 0 91 -4 155 -12 171
-19 43 -80 65 -128 48z m68 -221 c-3 -136 -4 -147 -22 -150 -37 -8 -46 24 -46
159 0 103 3 131 16 143 12 12 20 13 35 5 18 -9 19 -20 17 -157z"/>
<path d="M3690 1665 l0 -215 35 0 34 0 3 88 3 87 42 6 c23 3 51 13 62 23 41
37 38 160 -5 203 -20 20 -33 23 -99 23 l-75 0 0 -215z m128 143 c13 -13 16
-75 6 -102 -4 -10 -18 -16 -35 -16 l-29 0 0 65 c0 61 1 65 23 65 13 0 28 -5
35 -12z"/>
<path d="M3992 1668 l3 -213 33 -3 32 -3 0 90 c0 92 5 103 42 93 21 -5 28 -32
28 -114 l0 -68 35 0 35 0 0 68 c0 72 -13 131 -31 143 -8 4 -6 14 5 32 10 15
17 47 17 83 1 51 -2 61 -25 81 -23 20 -38 23 -102 23 l-74 0 2 -212z m126 135
c11 -20 9 -73 -2 -91 -4 -7 -18 -12 -32 -12 -23 0 -24 3 -24 60 0 57 1 60 25
60 13 0 28 -8 33 -17z"/>
<path d="M4610 1665 l0 -215 65 0 c69 0 118 17 129 45 3 9 6 88 6 176 0 156
-1 160 -25 184 -21 22 -33 25 -100 25 l-75 0 0 -215z m131 128 c6 -16 9 -79 7
-146 -3 -122 -8 -136 -50 -137 -16 0 -18 14 -18 155 l0 155 25 0 c19 0 28 -8
36 -27z"/>
<path d="M4920 1690 c0 -189 0 -191 25 -215 18 -19 35 -25 69 -25 99 0 106 16
106 250 l0 181 -32 -3 -33 -3 -1 -168 c-1 -92 -5 -174 -8 -183 -4 -9 -15 -14
-28 -12 -23 3 -23 5 -26 186 l-2 182 -35 0 -35 0 0 -190z"/>
<path d="M5510 1850 c0 -28 3 -30 35 -30 l35 0 0 -185 0 -185 35 0 35 0 0 185
0 185 35 0 c32 0 35 2 35 30 l0 30 -105 0 -105 0 0 -30z"/>
<path d="M5810 1665 l0 -215 35 0 35 0 0 215 0 215 -35 0 -35 0 0 -215z"/>
<path d="M6300 1665 l0 -215 30 0 30 0 1 148 1 147 24 -95 c54 -208 50 -200
89 -200 l35 0 0 215 0 215 -30 0 -29 0 -3 -117 -3 -118 -30 118 -29 117 -43 0
-43 0 0 -215z"/>
</g>
</svg>
